<?xml version="1.0" encoding="UTF-8" standalone="no" ?>
<!DOCTYPE svg PUBLIC "-//W3C//DTD SVG 1.1//EN" "http://www.w3.org/Graphics/SVG/1.1/DTD/svg11.dtd">
<svg xmlns="http://www.w3.org/2000/svg" xmlns:xlink="http://www.w3.org/1999/xlink" version="1.1" width="1080" height="1080" viewBox="0 0 1080 1080" xml:space="preserve">
<desc>Created with Fabric.js 5.2.4</desc>
<defs>
</defs>
<g transform="matrix(1 0 0 1 540 540)" id="eca5d02d-4e58-4255-9bad-a7ee18a1a507"  >
<rect style="stroke: none; stroke-width: 1; stroke-dasharray: none; stroke-linecap: butt; stroke-dashoffset: 0; stroke-linejoin: miter; stroke-miterlimit: 4; fill: rgb(255,252,252); fill-rule: nonzero; opacity: 1;" vector-effect="non-scaling-stroke"  x="-540" y="-540" rx="0" ry="0" width="1080" height="1080" />
</g>
<g transform="matrix(1 0 0 1 540 540)" id="43612ef4-7608-4d8b-b811-c7e77114dc66"  >
</g>
<g transform="matrix(9.6 0 0 9.6 540 540)" id="svgGroup"  >
<path style="stroke: rgb(0,0,0); stroke-width: 0.9448818897637796; stroke-dasharray: none; stroke-linecap: round; stroke-dashoffset: 0; stroke-linejoin: miter; stroke-miterlimit: 4; fill: rgb(44,38,38); fill-rule: evenodd; opacity: 1;"  transform=" translate(-56.27, -37.6)" d="M 100.549 72.989 C 100.51974992655443 72.83811655004246 100.46640075207581 72.69292575873992 100.391 72.559 C 100.24906892119807 72.28258562444758 100.11731386446876 72.00106342728418 99.996 71.715 Q 99.405 70.326 98.926 68.408 C 98.70401982621865 67.51425225084542 98.50661216353602 66.61458016652493 98.334 65.70999999999998 C 98.1425152698303 64.70891057636027 97.97347289401638 63.70365857817695 97.827 62.69499999999999 C 97.66722672559659 61.59665889997286 97.52487550679572 60.49585392460874 97.4 59.392999999999994 C 97.26570762699885 58.208677540567216 97.14769648538085 57.0225655578638 97.04600000000005 55.83499999999999 C 96.9926074604375 55.21432914740129 96.94327307290592 54.59331587732506 96.89799999999998 53.97200000000001 C 96.75750585008095 52.03173311834172 96.6521552496453 50.0890813818276 96.582 48.14500000000002 C 97.19723678885147 48.06657033975616 97.81257059526484 47.988903613377715 98.4279999999992 47.91199999999994 Q 100.376 47.67 101.953 47.485 C 102.41198181844041 47.43151030776985 102.87098184507344 47.378176971341645 103.3300000000005 47.32499999999969 Q 103.99 47.248 104.593 47.178 C 105.04763519375204 47.12539359414335 105.50230194242445 47.073060251370926 105.95699999999927 47.02100000000007 C 106.29571544072834 46.98242471382209 106.6343823736876 46.9434246831565 106.97300000000011 46.90399999999998 Q 107.454 46.848 107.884 46.796 C 108.20209426673092 46.75811257940329 108.52009522134412 46.71944579666211 108.83800000000001 46.68000000000004 C 109.07261610250804 46.650592292173656 109.30728312338664 46.62159224840036 109.5419999999999 46.59300000000007 Q 109.879 46.552 110.188 46.516 C 110.42158502635695 46.48862275622564 110.65525277363878 46.46195596623626 110.88900000000007 46.435999999999986 Q 111.621 46.338 112.085 45.825 C 112.38749107341366 45.50069644727996 112.55363163154007 45.072454836247246 112.549 44.629 C 112.54885311306245 44.58229143762454 112.54718556308399 44.535600038227365 112.544 44.489 C 112.5227080884608 44.020178489921236 112.30266524156858 43.58263874643139 111.939 43.286 Q 111.328 42.773 110.693 42.773 C 110.67129871333562 42.77369386549044 110.64962261863367 42.77502777901056 110.628 42.777 Q 110.241 42.804 107.922 43.054 C 107.657654065306 43.082550351025105 107.3933207063815 43.11121702046733 107.12899999999983 43.14000000000024 Q 103.76 43.506 96.436 44.434 Q 96.338 42.432 96.338 40.479 L 96.338 36.523 Q 96.338 31.152 96.558 25.903 C 96.62766228988237 24.226120762617676 96.70899759411228 22.54974680781281 96.80199999999998 20.874000000000045 C 96.88689588679588 19.343211535258085 96.98456595482304 17.813158251145975 97.09499999999996 16.284000000000063 C 97.15768293256886 15.41708391775618 97.22368341591142 14.550410904166627 97.29299999999998 13.68400000000008 Q 97.392 12.449 97.492 11.346 C 97.56528955227554 10.525759613263194 97.64462504143471 9.706070672748677 97.72999999999998 8.887000000000059 Q 97.978 6.522 98.121 5.438 C 98.14296984558884 5.269050684947308 98.16697158262635 5.100371810767109 98.193 4.932000000000002 C 98.25212632453882 4.859902018858991 98.31013327084054 4.7868932760999545 98.367 4.7130000000000045 Q 98.56 4.461 98.762 4.165 C 98.8852876538303 3.9833804668049844 99.00497764187189 3.7993446077549553 99.121 3.612999999999997 C 99.16466096050871 3.5435283354810867 99.20634435902281 3.4728332916011837 99.246 3.4009999999999994 Q 99.405 3.11 99.495 2.834 C 99.56912454829094 2.6127924051700147 99.6079337078467 2.381287331646061 99.61 2.1480000000000006 C 99.60988827007229 2.1099818174150693 99.60888799694862 2.071971438715957 99.607 2.0339999999999976 C 99.58936930800286 1.4849264726347453 99.34234816207773 0.9683947372494708 98.926 0.6100000000000003 Q 98.667 0.379 98.401 0.235 C 98.12849314629773 0.08297211370305019 97.8220382384212 0.0021450616817429435 97.51 -1.1102230246251565e-16 C 97.3967022236798 -0.0001012665108972463 97.28349990433728 0.0065773364001654715 97.171 0.019999999999999574 Q 96.113 0.147 95.606 1.099 C 95.50762834535875 1.2833167512136092 95.41590265616784 1.4711042530844574 95.331 1.6619999999999997 C 95.06835810792437 2.258317123772521 94.86601771404742 2.879408332792175 94.727 3.5159999999999982 C 94.69401143439494 3.5700069868544713 94.66101143365522 3.624006988065003 94.62800000000007 3.6779999999999777 Q 93.675 5.25 92.236 7.593 C 91.70248251709384 8.461819652280758 91.16547818710805 9.32849330713057 90.62499999999996 10.193000000000051 C 90.02579517410459 11.151300210580992 89.4234586210696 12.107638655881088 88.81799999999998 13.061999999999971 C 88.16219786221198 14.096094454554379 87.50519742093827 15.129428481925878 86.84700000000022 16.16200000000002 C 86.14612432809433 17.261384658246524 85.44412396062657 18.360051900019602 84.74100000000023 19.45799999999982 Q 82.568 22.852 80.298 26.318 C 78.79702684407249 28.61041782116869 77.2752976194729 30.889178167140933 75.73300000000006 33.15400000000001 C 74.9881325133889 34.247498859015835 74.23912714391412 35.3381733445172 73.48599999999999 36.42600000000005 C 72.77434465775937 37.45436041247716 72.05833823942706 38.479702937053624 71.33799999999998 39.50200000000005 Q 70.068 41.309 68.262 43.604 C 67.62986845945271 44.405404531461855 66.98275455208328 45.1948768306122 66.321 45.97200000000001 C 65.59753419809864 46.82151304885927 64.86077675644333 47.65961631054317 64.11099999999999 48.48599999999998 C 63.11027797379313 48.58640194242809 62.10892416916953 48.68040386416707 61.107 48.76800000000001 C 59.01848461140568 48.95109668559532 56.92722778637053 49.10144848347366 54.83400000000002 49.218999999999994 Q 50.44 49.463 46.485 49.463 Q 39.6 49.463 34.229 48.73 Q 31.123 48.307 28.581 47.647 C 27.42388075318487 47.351465482042755 26.285230673866295 46.98783206961521 25.171 46.55800000000001 C 24.74938963731167 46.39367881557631 24.332864486430665 46.21659726624259 23.922000000000004 46.027 Q 21.143 44.741 19.556 42.993 Q 17.627 40.869 17.627 38.086 Q 17.627 36.475 18.311 35.083 C 18.501854702961086 34.6925119305851 18.710746528696223 34.311100817461686 18.937 33.94 C 19.202548090331668 33.50275919180667 19.498967997914402 33.085031024412736 19.823999999999998 32.69 C 19.94319790932631 32.5462316563427 20.064882913118968 32.404543638227956 20.188999999999997 32.265 Q 20.489 31.928 20.776 31.648 C 20.970583180082755 31.456714704150276 21.174498430435342 31.275160045898545 21.386999999999997 31.104000000000003 C 21.45507552166465 31.04942734141483 21.523075586610332 30.994760622536944 21.591000000000022 30.939999999999998 Q 22.134 30.503 22.217 30.42 C 22.472739180373896 30.262561526224978 22.676527910771554 30.033386145112253 22.803 29.761 C 22.93089756411683 29.49409070857916 22.99752162890408 29.201969809127363 22.998 28.906 C 22.998067459080563 28.85529113554198 22.996399816771 28.804594809331324 22.993 28.754 C 22.974119694715423 28.30035450006506 22.762797900850995 27.8762560290738 22.412 27.588 C 22.346712342942464 27.533169082176915 22.278620603838696 27.48176649481427 22.208 27.434 C 21.8950522784757 27.217308634182295 21.523645157450282 27.10082978120343 21.143 27.1 Q 20.264 27.1 19.043 28.101 C 19.0363262819193 28.106324513088335 19.029659609420964 28.111657851087006 19.022999999999996 28.117000000000004 Q 18.385 28.643 17.774 29.329 C 17.390643100121952 29.761631363511306 17.031750772952126 30.215338035719487 16.698999999999998 30.688000000000006 Q 15.576 32.275 14.771 34.229 C 14.70022875234087 34.40005372738164 14.63354316226746 34.57276940567177 14.571 34.747 C 14.174712254334684 35.83282291922022 13.969676068462572 36.97913083627421 13.965000000000002 38.135 C 13.964938874095035 38.46434781916258 13.977280953385364 38.79358112347493 14.001999999999999 39.122 C 14.131650557204406 41.42765919482485 15.05933207253351 43.61640777005445 16.626000000000005 45.313 C 17.6759619761112 46.43505622805676 18.878784927831788 47.403576136285174 20.19900000000001 48.190000000000005 C 21.338963617854052 48.87309102700908 22.53693541692481 49.4543415898543 23.779000000000003 49.92699999999999 C 23.82895267880103 49.946124296721464 23.878952833370796 49.965124355457974 23.92900000000001 49.984 Q 28.37 51.672 34.18 52.393 C 35.20739215563447 52.52017890370946 36.23687459358516 52.62986145619837 37.26799999999997 52.721999999999994 C 40.38144968661656 52.99557021355425 43.5055585531222 53.13003735797397 46.630999999999986 53.12500000000001 C 48.877784673437276 53.12443535309805 51.124299648412205 53.075757527875986 53.36899999999994 52.97900000000001 C 55.66679514754825 52.879948864570835 57.96228877216263 52.7332506518141 60.254000000000005 52.53900000000003 C 59.5095918601802 53.283021690041586 58.75078166588452 54.01249300160527 57.977999999999994 54.727000000000004 C 56.18613523751259 56.3800143539 54.33108558075309 57.9631946579785 52.416999999999994 59.47299999999999 C 49.4980543967822 61.77648062466755 46.37666089459568 63.811109736804774 43.09099999999999 65.55199999999999 C 39.70539234700406 67.3459662543491 36.147360685061756 68.7936361989115 32.471000000000004 69.87300000000002 C 28.64890718945195 70.99092262779475 24.685192094657623 71.55004627304956 20.702999999999996 71.53300000000002 C 20.289946818955464 71.53324214309282 19.876909187928806 71.52790832380595 19.46399999999999 71.517 Q 17.641 71.468 16.036 71.271 C 14.993081607450758 71.14696581920597 13.959027630567933 70.95725565807243 12.939999999999998 70.703 Q 10.895 70.184 9.298 69.589 C 8.70220706769033 69.36921129460846 8.116913322895673 69.12194637733775 7.543999999999995 68.848 Q 6.084 68.143 5.12 67.495 C 4.851882480673192 67.31698323083512 4.593510999716792 67.12470677989083 4.345999999999996 66.919 Q 3.272 66.016 3.174 65.918 C 2.9941200069272558 65.71776315247237 2.7707323163895565 65.56142597854323 2.521 65.461 C 2.2933616118121254 65.37301250901035 2.0510355845371353 65.32923091584722 1.8070000000000004 65.332 C 1.5795588058071455 65.33019813110559 1.3539707977666848 65.37300549407713 1.1429999999999998 65.458 C 0.9154529553976523 65.55292124981867 0.7093549336574728 65.69270060119692 0.5369999999999999 65.869 C 0.3786080440665278 66.02498918504351 0.25015188949814565 66.20869165410964 0.1579999999999998 66.411 C 0.05045744387046286 66.65574726634046 -0.003417537175073121 66.92068941996313 3.0531133177191805e-16 67.188 C -0.00021987620826515535 67.28226254383182 0.005457880776047556 67.37644651263041 0.016999999999999904 67.47 C 0.05676434837065768 67.84310960061988 0.22296516673460837 68.19139029642714 0.48799999999999943 68.457 Q 0.574 68.542 1.538 69.376 C 1.6356300560636632 69.46037572287383 1.733296731931012 69.54470906415179 1.8309999999998359 69.62899999999988 Q 3.076 70.703 5.542 71.948 C 5.945245104212691 72.15085036145064 6.3547816289114065 72.34094467666095 6.769999999999998 72.518 Q 7.854 72.983 9.139 73.409 C 10.015023354573984 73.69797290298182 10.899780202606665 73.95976488402427 11.792000000000014 74.19399999999999 Q 13.98 74.773 16.633 75.017 C 18.002562904635674 75.13917978214533 19.37700266694561 75.19857533390334 20.751999999999995 75.195 C 24.167993843578927 75.19219547076034 27.573368640397582 74.81460295266898 30.907000000000004 74.069 C 35.42864243659389 73.03982215629148 39.80152317125701 71.44140555457084 43.92099999999997 69.31200000000001 C 47.905071001633495 67.26383517746858 51.6805082832972 64.83306042449111 55.19400000000003 62.053999999999995 C 59.03383562657413 59.01579041795649 62.620315513063645 55.67043809563694 65.918 52.05099999999997 Q 70.166 51.611 74.268 51.025 C 74.80864679288845 50.953183481564146 75.34931348032029 50.88151681214509 75.88999999999825 50.81000000000031 Q 78.285 50.492 80.45 50.208 C 81.86410857461833 50.022936904335076 83.27844296580342 49.83960343387702 84.69299999999829 49.65799999999982 Q 87.011 49.361 89.096 49.088 C 90.37089102632305 48.92170669381459 91.64555883546333 48.753706543237286 92.91999999999919 48.58399999999987 C 92.93629661956109 48.92436810359556 92.95329665586618 49.26470216374353 92.97099999999996 49.605000000000004 C 93.08940269991064 51.911907312553254 93.2434210604136 54.216848750902116 93.43300000000005 56.519000000000034 Q 93.75 60.352 94.263 63.672 C 94.42543753214082 64.73220259712654 94.6124880139295 65.78848767075681 94.82399999999998 66.83999999999997 C 95.01737164881109 67.79994564083982 95.2374570748198 68.75431607907758 95.484 69.702 Q 95.904 71.311 96.402 72.602 C 96.6122775615064 73.153283377785 96.85161294905768 73.69303975389437 97.119 74.219 C 97.15840974247075 74.29808865438945 97.20283361010786 74.37457787009545 97.252 74.448 C 97.38696789781339 74.65334608258163 97.56682846047723 74.82534201988183 97.778 74.951 Q 98.193 75.195 98.731 75.195 Q 99.561 75.195 100.073 74.658 C 100.4065876081219 74.32046967714399 100.59130768217449 73.86353054659284 100.586 73.389 C 100.5860134210083 73.3843333429828 100.5860134210083 73.3796666570172 100.586 73.375 Q 100.585 73.169 100.549 72.989 Z M 79.279 46.625 C 77.4453386491649 46.86854921175032 75.61200367787916 47.11454943153446 73.77899999999977 47.36300000000074 C 73.68599351991939 47.37528442067585 73.59299350705706 47.38761775571501 73.4999999999999 47.40000000000009 C 72.86866635830283 47.48284778378989 72.23766146423644 47.5681817789727 71.6069999999998 47.656000000000056 C 70.90105329565108 47.75430845530132 70.19284951578808 47.8356651983741 69.483 47.900000000000006 Q 70.703 46.387 71.924 44.824 C 72.74761562325193 43.769517860151495 73.54551722386901 42.695201538718884 74.317 41.60199999999999 C 75.12376155287076 40.458133033358735 75.92510386430531 39.310453508288354 76.72100000000005 38.15899999999993 C 77.5684630697572 36.93385799339293 78.41080375496607 35.705180602937965 79.24800000000005 34.47300000000002 C 80.97950602606738 31.924407929156413 82.68857207414352 29.36064218393434 84.37500000000001 26.781999999999968 C 86.02867511260446 24.254646633093145 87.66438301614974 21.715582622230208 89.28199999999993 19.165000000000095 Q 91.651 15.43 93.604 12.354 Q 93.329 15.253 93.131 18.791 C 93.0479240500971 20.282372035745855 92.97758815110893 21.774426461674786 92.91999999999999 23.267000000000067 C 92.87882683701905 24.32514058874873 92.8431596875423 25.383488248457084 92.81300000000003 26.442000000000128 C 92.71997861840157 29.769181697852716 92.67430732822766 33.09751864015699 92.67599999999995 36.426000000000066 C 92.67576857028666 37.84203454241975 92.6837687054556 39.25805846732178 92.7 40.67399999999996 Q 92.725 42.773 92.774 44.873 C 91.42893766236945 45.04551500641607 90.08393757492816 45.21851501766335 88.73899999999969 45.39200000000023 C 87.24361034508735 45.58489746527758 85.74827694822908 45.778230806824006 84.25299999999967 45.97199999999993 C 82.594645243075 46.18695584469235 80.93664302722185 46.40462280226203 79.27899999999907 46.62500000000002 Z" stroke-linecap="round" />
</g>
</svg>